<svg width="86" height="52" viewBox="0 0 86 52" fill="none" xmlns="http://www.w3.org/2000/svg">
    <path d="M0 43.4319H43.5761V0H0V43.4319ZM22.9723 2.30778C29.4522 2.34988 36.058 5.38906 39.9147 12.1208L39.9141 12.1211L29.0917 18.2933C27.5058 15.7558 25.2481 14.7845 23.144 14.7666C19.3131 14.7347 16.0097 17.8008 16.0113 21.7116C16.0094 25.7351 19.3237 28.6542 22.9494 28.7151C25.1164 28.751 27.7536 27.5479 29.0933 25.1625L39.9153 31.3501C35.981 38.1109 29.2364 41.1634 22.9348 41.1523C12.9413 41.1359 3.54061 33.1713 3.54216 21.7283C3.54154 10.3466 12.9802 2.2434 22.9723 2.30778Z" fill="#FAFAFA"/>
    <path d="M59.1506 24.8357L71.6079 40.3358H84.0429L84.0425 3.11292H71.6079V18.6385L59.1506 3.11292H46.7063L46.7029 40.3358H59.1506V24.8357Z" fill="#FAFAFA"/>
    <path d="M4.07992 48.1369C4.52172 48.0707 4.93279 48.3199 5.18272 48.6672L6.61554 47.8497C6.2439 47.2517 5.66798 46.7741 4.98339 46.5819C3.3795 46.1381 1.78679 47.0824 1.47198 48.7894C1.23881 50.758 2.69833 52.0505 4.39164 51.9985C5.30442 51.9218 6.14238 51.3931 6.61523 50.6134L5.18241 49.7882C4.91789 50.1779 4.52762 50.3386 4.16096 50.3274C3.50587 50.2955 2.9703 49.6762 3.14634 48.9296C3.26184 48.5099 3.64433 48.1784 4.07992 48.1369Z" fill="#FAFAFA"/>
    <path d="M29.4016 47.9264C29.0529 47.3337 28.4944 46.9097 27.8275 46.7335C27.1565 46.5556 26.4564 46.649 25.8563 46.996C25.2555 47.3433 24.8271 47.9026 24.6483 48.5712C24.4704 49.24 24.5638 49.938 24.9118 50.5372C25.3931 51.3646 26.2667 51.8279 27.1643 51.8279C27.6061 51.8279 28.0538 51.7156 28.4633 51.4791C29.703 50.7626 30.1265 49.1744 29.4081 47.9385C29.4062 47.9336 29.4037 47.9302 29.4016 47.9264ZM27.7514 50.2537C27.1885 50.579 26.4654 50.3874 26.1394 49.8263C25.8128 49.2651 26.0053 48.5439 26.5679 48.2196C26.7501 48.1137 26.9526 48.0598 27.1575 48.0598C27.2593 48.0598 27.3615 48.0732 27.4627 48.1001C27.7672 48.1809 28.0218 48.3746 28.1802 48.6464C28.1817 48.6492 28.1833 48.6513 28.1848 48.6538C28.5049 49.2137 28.3121 49.93 27.7514 50.2537Z" fill="#FAFAFA"/>
    <path d="M73.9199 47.9308C73.1993 46.6999 71.61 46.2805 70.3721 46.9958C69.1327 47.7123 68.7089 49.3008 69.4277 50.5364C69.9092 51.3637 70.7829 51.8271 71.6798 51.8271C72.1219 51.8271 72.5699 51.7147 72.9791 51.4783C74.2185 50.7617 74.6423 49.1736 73.9242 47.9377C73.9227 47.9349 73.9211 47.9327 73.9199 47.9308ZM72.8158 49.5394C72.7348 49.8424 72.5401 50.0963 72.2672 50.2544C71.7044 50.5797 70.981 50.3881 70.6553 49.8273C70.329 49.2661 70.5212 48.5446 71.0843 48.2202C71.2703 48.1125 71.4734 48.0612 71.6739 48.0612C72.0813 48.0612 72.478 48.2713 72.6963 48.6471C72.6969 48.6489 72.6982 48.6502 72.6991 48.652C72.855 48.9219 72.8966 49.237 72.8158 49.5394Z" fill="#FAFAFA"/>
    <path d="M8.39166 46.5841L6.72754 51.8881H8.59781L8.87103 50.9988H10.5746L10.8428 51.8881H12.7125L11.0484 46.5841H8.39166ZM9.24452 49.6932L9.72047 48.0475L10.1955 49.6932H9.24452Z" fill="#FAFAFA"/>
    <path d="M18.3404 48.3868C18.341 47.4356 17.4819 46.611 16.5427 46.5841H13.2493V51.8881H15.0115V50.3377H15.5859L16.3757 51.8881H18.3357L17.3087 50.1489C18.0997 49.6428 18.3705 49.016 18.3404 48.3868ZM16.1823 49.0185L15.0115 49.0206V48.1308H16.1838C16.4108 48.1342 16.5766 48.3543 16.5865 48.5424C16.5927 48.8117 16.3869 49.0141 16.1823 49.0185Z" fill="#FAFAFA"/>
    <path d="M18.8269 48.1326H20.496V51.8877H22.4901V48.1326H24.1577V46.5837H18.8269V48.1326Z" fill="#FAFAFA"/>
    <path d="M40.0444 48.7894L38.2428 46.5841H36.4843V51.8881H38.2428V49.6778L40.0444 51.8881H41.8042V46.5841H40.0444V48.7894Z" fill="#FAFAFA"/>
    <path d="M48.9627 48.7894L47.1613 46.5841H45.4028V51.8881H47.1613V49.6778L48.9627 51.8881H50.7224V46.5841H48.9627V48.7894Z" fill="#FAFAFA"/>
    <path d="M51.4872 51.8877H56.1328V50.4717H53.2469V49.9136H55.6773V48.6743H53.2469V48.1314H56.1328V46.5841H51.4872V51.8877Z" fill="#FAFAFA"/>
    <path d="M56.7211 48.1326H58.3905V51.8877H60.3837V48.1326H62.0522V46.5837H56.7211V48.1326Z" fill="#FAFAFA"/>
    <path d="M66.513 48.9049L65.6154 46.7735L64.734 48.9095C64.7318 48.8999 64.2851 46.5835 64.2851 46.5835H62.4965C62.516 46.7033 63.5266 51.8874 63.5266 51.8874H64.9765L65.6154 50.4556L66.246 51.8874H67.7204L68.7335 46.5835H66.962L66.513 48.9049Z" fill="#FAFAFA"/>
    <path d="M80.0557 48.3868C80.0567 47.4356 79.197 46.611 78.2581 46.5841H74.965V51.8881H76.7266L76.7306 50.3377H77.3013L78.0911 51.8881H80.0511L79.0237 50.1489C79.8148 49.6428 80.0856 49.016 80.0557 48.3868ZM77.8974 49.0185L76.7266 49.0206V48.1308H77.8992C78.1259 48.1342 78.2916 48.3543 78.3016 48.5424C78.3069 48.8117 78.1013 49.0141 77.8974 49.0185Z" fill="#FAFAFA"/>
    <path d="M86 46.5837H83.7314L82.4047 48.3022V46.5837H80.6245V51.8877H82.4047V49.9142L83.7314 51.8877H86L83.9413 49.1125L86 46.5837Z" fill="#FAFAFA"/>
    <path d="M35.4154 47.9264C34.6939 46.6989 33.1061 46.2816 31.8702 46.9954C30.6308 47.7119 30.2073 49.3004 30.9257 50.536C31.4069 51.3633 32.2806 51.8267 33.1782 51.8267C33.62 51.8267 34.068 51.7143 34.4772 51.4779C35.7169 50.7613 36.1404 49.1732 35.4216 47.9373C35.4198 47.9335 35.4176 47.9301 35.4154 47.9264ZM33.7656 50.2537C33.2027 50.579 32.4796 50.3874 32.1533 49.8263C31.827 49.2651 32.0195 48.5439 32.5827 48.2195C32.7646 48.1137 32.9667 48.0598 33.172 48.0598C33.2738 48.0598 33.3762 48.0731 33.4771 48.1001C33.7814 48.1808 34.0363 48.3746 34.1946 48.6464C34.1962 48.6491 34.1974 48.6513 34.1993 48.6538C34.5185 49.2137 34.3254 49.9299 33.7656 50.2537Z" fill="#FAFAFA"/>
</svg>
