<svg width="52" height="52" viewBox="0 0 52 52" fill="none" xmlns="http://www.w3.org/2000/svg">
    <path d="M25.9999 0C11.6406 0 0 11.6406 0 26C0 40.3595 11.6406 52 25.9999 52C40.3594 52 52 40.3594 52 26C52 11.6406 40.3594 0 25.9999 0ZM1.91267 26C1.91267 23.2069 2.38221 20.4864 3.3109 17.8939L5.81183 19.631V39.1489C5.03438 37.9577 4.36432 36.6972 3.80477 35.375C2.54974 32.4066 1.91267 29.2525 1.91267 26ZM43.0323 43.0324C40.8197 45.2449 38.2435 46.982 35.3755 48.1952C32.4071 49.4508 29.2529 50.0873 26 50.0873C22.7477 50.0873 19.5934 49.4508 16.6252 48.1952C13.7566 46.982 11.1808 45.2449 8.9678 43.0324C8.27001 42.334 7.61947 41.6 7.01769 40.8317H20.3292L25.5713 37.0367V16.3806L20.3292 12.4771H6.06127C6.91192 11.2259 7.88296 10.0532 8.9678 8.96784C11.1808 6.75478 13.7566 5.01773 16.6252 3.80488C19.5934 2.54922 22.7477 1.91278 26 1.91278C29.2529 1.91278 32.4071 2.54922 35.3755 3.80488C38.2435 5.01773 40.8197 6.75478 43.0323 8.96784C44.1177 10.0531 45.0881 11.2259 45.9388 12.4771H42.1329L41.2779 14.3649L38.7367 12.4771H32.8247L27.6204 16.3806V37.0367L32.8003 40.8317H44.983C44.3812 41.6 43.7305 42.334 43.0323 43.0324ZM11.1266 18.9673H15.8872C17.2193 18.9673 18.2987 20.0467 18.2987 21.3787V32.0532C18.2987 33.3848 17.2193 34.4645 15.8872 34.4645H13.0311V20.3476L11.1266 18.9673ZM46.8235 38.1182V30.7579H40.0862V34.4645H37.176C35.903 34.4645 34.8713 33.433 34.8713 32.16V20.3503L32.9655 18.9673H40.0862V23.0133H46.2619L47.4903 15.1067C47.7419 15.6027 47.9773 16.1091 48.1951 16.6246C49.4508 19.5929 50.0874 22.7471 50.0874 26C50.0874 29.2524 49.4508 32.4065 48.1951 35.3749C47.7945 36.3221 47.3369 37.2373 46.8235 38.1182Z" fill="#FAFAFA"/>
</svg>
