<svg width="116" height="21" viewBox="0 0 116 21" fill="none" xmlns="http://www.w3.org/2000/svg">
<path d="M14.5194 20.8385H9.19242V13.2515H5.75008V20.8193H0.307739V1.28518H5.75008V8.58405H9.19242V1.28518H14.5194V20.8385ZM38.9042 20.9153C44.3465 20.9153 48.7888 16.3823 48.7888 10.889C48.7888 5.28035 44.3465 0.958649 38.9042 0.958649C33.3849 0.958649 30.5964 4.97303 29.9233 6.58647C29.9233 4.16631 27.5002 1.26597 24.6925 1.26597H15.6155V20.8193H24.0771C27.5195 20.8193 29.9426 17.8805 29.9426 15.3067C30.6926 16.9201 33.3849 20.9153 38.9042 20.9153ZM23.3848 12.9826C24.1733 12.9826 24.8079 13.7509 24.8079 14.6152C24.8079 15.5372 24.1733 16.2863 23.3848 16.2863H20.6925V12.9826H23.3848ZM23.3848 5.6453C24.1733 5.6453 24.8079 6.4136 24.8079 7.27794C24.8079 8.14228 24.1733 8.91058 23.3848 8.91058H20.6925V5.6453H23.3848ZM26.9618 10.889C27.5964 10.8505 28.6156 10.1207 29.0195 9.69809C28.8656 10.2167 28.8656 11.8685 29.0195 12.3872C28.5772 11.7533 27.5964 10.985 26.9618 10.889ZM33.9426 10.889C33.9426 8.14228 36.1734 5.9142 38.9426 5.93341C41.7119 5.95262 43.9234 8.1999 43.885 10.9658C43.8465 13.6933 41.6349 15.8829 38.9234 15.8829C36.1541 15.8637 33.9426 13.6549 33.9426 10.889ZM38.9042 14.8073C41.0196 14.8073 42.808 13.0594 42.808 10.889C42.808 8.71851 41.0196 6.98983 38.9042 6.98983C36.7311 6.98983 34.9811 8.71851 34.9811 10.889C34.9811 13.0594 36.7311 14.8073 38.9042 14.8073ZM77.2121 8.1999C77.116 3.47484 73.7698 0.958649 69.6544 0.958649C67.3851 0.958649 65.3659 1.70774 63.9813 3.18673C62.5774 1.70774 60.5582 0.958649 58.2889 0.958649C54.1735 0.958649 50.8273 3.47484 50.7119 8.21911V19.0522C50.7119 20.051 51.5196 20.8577 52.5196 20.8577H54.212C54.385 20.8577 54.5196 20.7232 54.5196 20.5504V8.25753C54.5966 5.9142 56.2504 4.68492 58.2889 4.68492C60.3274 4.68492 62.0005 5.9142 62.0582 8.25753V19.0522C62.0582 20.051 62.8659 20.8577 63.8659 20.8577H65.5582C65.7313 20.8577 65.8659 20.7232 65.8659 20.5504V8.25753C65.9428 5.9142 67.5967 4.68492 69.6351 4.68492C71.6736 4.68492 73.3467 5.9142 73.4044 8.25753V19.0522C73.4044 20.051 74.2121 20.8577 75.2121 20.8577H76.9044C77.0775 20.8577 77.2121 20.7232 77.2121 20.5504V8.25753C77.2313 8.23832 77.2121 8.21911 77.2121 8.1999ZM115.462 1.28518H112.578C111.789 1.28518 111.039 1.68854 110.597 2.34159L107.405 7.06666C106.982 7.6813 106.078 7.6813 105.674 7.06666L102.482 2.34159C102.039 1.68854 101.289 1.28518 100.501 1.28518H97.6161C97.443 1.28518 97.3276 1.47725 97.4238 1.63091L103.116 10.063C103.52 10.6777 103.52 11.4652 103.116 12.0798L97.4238 20.4927C97.3276 20.6464 97.4238 20.8385 97.6161 20.8385H100.501C101.289 20.8385 102.039 20.4351 102.482 19.7821L105.674 15.057C106.097 14.4424 107.001 14.4424 107.405 15.057L110.597 19.7821C111.039 20.4351 111.789 20.8385 112.578 20.8385H115.462C115.635 20.8385 115.751 20.6464 115.655 20.4927L109.962 12.0606C109.558 11.446 109.558 10.6585 109.962 10.0438L115.655 1.61171C115.751 1.47725 115.655 1.28518 115.462 1.28518ZM96.1161 1.28518H94.4238C93.5584 1.28518 92.8468 1.89982 92.6738 2.70654C91.1545 1.55408 89.2699 0.977856 87.2122 0.977856C82.2121 0.958649 78.1929 4.41601 78.1929 10.9466C78.1929 17.4772 82.2314 20.9345 87.1929 20.9345C89.2314 20.9345 91.1161 20.3583 92.6161 19.225C92.693 20.147 93.4622 20.8577 94.4045 20.8577H96.0969C96.2699 20.8577 96.4045 20.7232 96.4045 20.5504V1.57329C96.4045 1.41963 96.2699 1.28518 96.1161 1.28518ZM87.1929 17.2083C84.2314 17.2083 81.8083 15.0378 81.8083 10.9466C81.8083 6.85537 84.2122 4.68492 87.1929 4.68492C90.1737 4.68492 92.5776 6.85537 92.5776 10.9466C92.5776 15.0378 90.1737 17.2083 87.1929 17.2083Z" fill="#FAFAFA"/>
</svg>
