<svg width="97" height="42" viewBox="0 0 97 42" fill="none" xmlns="http://www.w3.org/2000/svg">
    <path fill-rule="evenodd" clip-rule="evenodd" d="M28.1447 41.8244H17.6123V26.594H10.7916V41.8244H0V2.52184H10.7916V17.1837H17.6123V2.52184H28.1447V41.8244ZM76.4481 42C87.2397 42 96.0456 32.8965 96.0456 21.823C96.0456 10.575 87.2403 1.86552 76.4481 1.86552C65.5271 1.86552 60.0016 9.91807 58.6637 13.2008C58.6637 8.34257 53.8716 2.52184 48.3034 2.52184H30.3031V41.8244H47.0521C53.8716 41.8244 58.6637 35.9158 58.6637 30.7514C60.1737 33.9463 65.5271 42 76.4481 42ZM45.7136 26.0243C47.2675 26.0243 48.5194 27.5559 48.5194 29.307C48.5194 31.1454 47.2669 32.677 45.7136 32.677H40.3608V26.0243H45.7136ZM45.7136 11.2752C47.2675 11.2752 48.5194 12.8068 48.5194 14.5579C48.5194 16.309 47.2669 17.8406 45.7136 17.8406H40.3608V11.2752H45.7136ZM52.7929 21.823C54.0448 21.7358 56.0739 20.2914 56.8506 19.4161C56.548 20.4665 56.548 23.7925 56.8506 24.8434C55.9867 23.5735 54.0448 22.042 52.7929 21.823ZM66.6052 21.823C66.6052 16.3085 71.0092 11.8443 76.4475 11.8443C81.8858 11.8443 86.2887 16.3085 86.2887 21.823C86.2887 27.3814 81.8858 31.8462 76.4475 31.8462C71.0092 31.8462 66.6052 27.3814 66.6052 21.823ZM76.4481 29.7016C80.635 29.7016 84.1753 26.2 84.1753 21.823C84.1753 17.4466 80.635 13.9888 76.4481 13.9888C72.1312 13.9888 68.6776 17.4466 68.6776 21.823C68.6733 22.8589 68.8713 23.8853 69.2603 24.8432C69.6493 25.801 70.2215 26.6713 70.9439 27.4038C71.6663 28.1362 72.5247 28.7164 73.4694 29.1108C74.414 29.5052 75.4264 29.706 76.4481 29.7016ZM91.5065 3.04816C91.5065 1.60496 92.5783 0.512454 93.9595 0.512454C95.3185 0.512454 96.3954 1.60496 96.3954 3.04816C96.3954 4.51908 95.3179 5.60408 93.9595 5.60408C92.5783 5.60408 91.5065 4.51908 91.5065 3.04816ZM93.9595 6.10961C95.5988 6.10961 97 4.8172 97 3.04816C97 1.29298 95.5988 0 93.9595 0C92.3013 0 90.8979 1.29298 90.8979 3.04816C90.8979 4.81662 92.3013 6.10961 93.9595 6.10961ZM93.3196 3.28908H93.9259L94.8427 4.81662H95.4336L94.4455 3.26539C94.9532 3.20241 95.347 2.92741 95.347 2.29421C95.347 1.60496 94.9396 1.29298 94.1173 1.29298H92.7954V4.81662H93.3196V3.28908ZM93.3196 2.83728V1.7494H94.0364C94.4045 1.7494 94.7954 1.82624 94.7954 2.26474C94.7954 2.80724 94.396 2.83728 93.9498 2.83728H93.3196Z" fill="#FAFAFA"/>
</svg>