<svg width="94" height="41" viewBox="0 0 94 41" fill="none" xmlns="http://www.w3.org/2000/svg">
    <g clip-path="url(#clip0_728:1691)">
        <path d="M89.6373 40.9609C92.2143 40.9609 94 39.565 94 37.3578C94 34.9323 91.9284 34.2889 89.7276 33.5714C87.9652 33.0138 87.0802 32.5848 87.0802 31.4188C87.0802 30.253 88.016 29.551 89.371 29.551C90.6504 29.5094 91.809 30.2985 92.2339 31.5007L93.6398 30.6936C92.9097 29.0015 91.2201 27.9209 89.371 27.9639C87.2604 27.9639 85.404 29.2547 85.404 31.5164C85.404 33.8561 87.3622 34.476 89.371 35.1234C91.2235 35.6966 92.3435 36.1294 92.3435 37.4202C92.3435 38.5511 91.4585 39.3701 89.6765 39.3701C87.8359 39.3701 86.7551 38.4731 86.3048 37.0887L84.8636 37.9154C85.5293 39.7988 87.2447 40.9999 89.6373 40.9999" fill="#FAFAFA"/>
        <path d="M78.2452 39.1516V28.1705H76.569V40.731H83.6849V39.1516H78.2452Z" fill="#FAFAFA"/>
        <path d="M69.8409 28.1705H67.9495L63.2499 40.7309H65.0202L66.0502 37.9116H71.7247L72.7508 40.7309H74.5364L69.8409 28.1705ZM66.6337 36.3596L68.8854 30.171L71.1568 36.3596H66.6337Z" fill="#FAFAFA"/>
        <path d="M59.5453 28.1705V37.5373L53.0562 28.1705H51.7051V40.731H53.3813V31.3448L59.8705 40.731H61.2216V28.1705H59.5453Z" fill="#FAFAFA"/>
        <path d="M48.4744 28.1705H46.7982V40.7309H48.4744V28.1705Z" fill="#FAFAFA"/>
        <path d="M44.233 34.519H37.9279V36.0281H42.5568C42.2317 37.9116 40.6809 39.3466 38.0689 39.3466C35.0611 39.3466 33.0601 37.1941 33.0601 34.4643C32.9765 31.8338 35.0502 29.6341 37.6919 29.5509C37.7939 29.5476 37.8962 29.5476 37.9983 29.551C39.6591 29.5094 41.2094 30.3777 42.0358 31.8127L43.4809 30.9704C42.3306 29.0664 40.2531 27.9119 38.0219 27.9367C34.4098 27.9463 31.4896 30.8697 31.4993 34.4664C31.5092 38.063 34.4451 40.9706 38.0569 40.961C41.8596 40.961 44.2367 38.4499 44.2367 35.2561L44.233 34.519Z" fill="#FAFAFA"/>
        <path d="M28.8386 28.1705H27.1624V40.7309H28.8386V28.1705Z" fill="#FAFAFA"/>
        <path d="M21.9852 35.6888C24.014 34.9808 25.0822 32.7688 24.371 30.7487C23.8205 29.1854 22.3331 28.1432 20.6694 28.155H15.6215V40.7153H17.2975V35.9228H20.2738L23.117 40.731H24.9576L21.9852 35.6888ZM17.2858 34.3981V29.7188H20.6576C21.9555 29.7188 23.0073 30.7662 23.0073 32.0584C23.0073 33.3507 21.9555 34.3981 20.6576 34.3981H17.2858Z" fill="#FAFAFA"/>
        <path d="M6.53573 27.9366C2.92368 27.9389 -0.00253635 30.8565 1.64972e-06 34.453C0.00225765 38.0463 2.92716 40.9586 6.53573 40.9609C10.1477 40.9586 13.0738 38.0412 13.0715 34.4445C13.0693 30.8513 10.1444 27.939 6.53573 27.9366ZM6.53573 39.3311C3.82355 39.3311 1.62479 37.1417 1.62479 34.4411C1.62479 31.7404 3.82355 29.5511 6.53573 29.5511C9.248 29.5511 11.4467 31.7405 11.4467 34.4411C11.4467 37.1417 9.248 39.3311 6.53573 39.3311Z" fill="#FAFAFA"/>
        <path d="M62.8428 0.398079H61.3665C60.5584 0.398079 59.8117 0.827796 59.4084 1.52502L58.864 2.47262C56.8352 0.851757 54.3064 -0.0216223 51.7052 0.000280069C44.8245 0.000280069 40.2465 4.83967 40.2465 12.5021C40.2465 20.2272 44.9028 25.008 51.6504 25.008C54.2311 25.008 56.7923 24.1579 58.4294 22.836C58.5345 23.9909 59.5248 24.8643 60.689 24.8286H62.8312C63.0387 24.8286 63.2228 24.7389 63.2228 24.5322V0.772479C63.2146 0.567589 63.0485 0.40407 62.8428 0.398079ZM51.6073 20.3521C47.6912 20.3521 44.8285 17.4546 44.8285 12.5022C44.8285 7.54985 47.695 4.65247 51.6073 4.65247C55.5197 4.65247 58.3862 7.54985 58.3862 12.5022C58.3862 17.4546 55.5197 20.3521 51.6073 20.3521Z" fill="#FAFAFA"/>
        <path d="M29.8137 0.000366211C27.0214 0.000366211 24.519 0.94797 22.8076 2.78084C21.0884 0.955833 18.5821 0.0160909 15.7898 0.0199285C10.6988 0.0199285 6.57097 3.16301 6.44971 9.07852V22.5903C6.45403 23.8233 7.45551 24.8222 8.69377 24.8287H10.7928C10.9917 24.8229 11.1483 24.6577 11.1427 24.4598C11.1424 24.4529 11.1421 24.4458 11.1414 24.4386V9.11362C11.2275 6.19667 13.2796 4.65246 15.7978 4.64863C18.3159 4.6447 20.3758 6.18507 20.4502 9.10183V22.5006C20.4489 23.7542 21.4404 24.7861 22.6982 24.8403H24.7933C24.9942 24.8201 25.1469 24.6514 25.1458 24.4505V9.17212C25.2281 6.25911 27.2801 4.65256 29.8022 4.64863C32.3243 4.6447 34.3764 6.16551 34.4743 9.07843V22.5512C34.4783 23.7922 35.4761 24.8033 36.7221 24.8286H38.8212C39.03 24.8041 39.182 24.6199 39.1659 24.4114V9.02386C39.0168 3.12005 34.8891 0.000366211 29.8137 0.000366211Z" fill="#FAFAFA"/>
        <path d="M64.3153 0.686673L71.7091 11.5585C72.1326 12.1971 72.1326 13.0257 71.7091 13.6643L64.3153 24.5323C64.2569 24.6201 64.2812 24.7387 64.3697 24.797C64.4012 24.8176 64.4382 24.8287 64.4758 24.8286H68.2237C69.1009 24.8286 69.9585 24.7233 70.7184 23.6588L74.5523 18.024C74.8538 17.5833 75.2885 17.0647 75.9073 17.0647C76.526 17.0647 76.9606 17.5833 77.2582 18.024L81.0962 23.6588C81.852 24.7195 82.7096 24.8286 83.587 24.8286H87.3347C87.4384 24.8307 87.5243 24.7487 87.5266 24.6454C87.5266 24.6454 87.5266 24.6454 87.5266 24.6452C87.5271 24.6102 87.5162 24.5761 87.4951 24.5478L80.1014 13.6798C79.6881 13.0383 79.6881 12.2156 80.1014 11.5741L87.4951 0.70221C87.5162 0.673943 87.5271 0.63978 87.5266 0.60468C87.5266 0.501346 87.4424 0.41748 87.3387 0.41748C87.3372 0.41748 87.3361 0.41748 87.3347 0.417573H83.587C82.7096 0.417573 81.852 0.515105 81.0962 1.58748L77.2582 7.22228C76.9606 7.66295 76.522 8.18552 75.9073 8.18552C75.2923 8.18552 74.8538 7.66295 74.5523 7.22228L70.7184 1.58748C69.9585 0.526805 69.1009 0.417573 68.2237 0.417573H64.4758C64.3721 0.416076 64.2868 0.498818 64.2855 0.602152C64.2848 0.639031 64.2953 0.675161 64.3153 0.706142" fill="#FAFAFA"/>
    </g>
    <defs>
        <clipPath id="clip0_728:1691">
            <rect width="94" height="41" fill="white"/>
        </clipPath>
    </defs>
</svg>
