<svg width="47" height="57" viewBox="0 0 47 57" fill="none" xmlns="http://www.w3.org/2000/svg">
    <path d="M45.735 11.0713C45.6743 10.8398 45.6172 10.7539 45.4995 10.724L41.2455 9.60407L40.6531 7.22186C40.6227 7.1061 40.5922 7.02024 40.4745 6.99034L36.1027 5.82922L35.5712 3.56292C35.5679 3.49668 35.5433 3.43316 35.501 3.38151C35.4587 3.32985 35.4008 3.29272 35.3357 3.27546L23.975 1.20306C23.7892 1.16946 23.5987 1.16946 23.4129 1.20306L12.0563 3.27546C11.9907 3.29259 11.9323 3.32959 11.8894 3.38119C11.8464 3.43279 11.8211 3.49637 11.817 3.56292L11.2854 5.82922L6.91369 6.9905C6.79594 7.02024 6.76551 7.10626 6.73902 7.22202L6.14647 9.60407L1.89247 10.7242C1.77472 10.7539 1.71387 10.84 1.65696 11.0715C1.29772 12.9285 1.11968 14.8151 1.12525 16.7054C1.12525 33.4325 9.98652 47.9528 23.2231 56.6077C23.3602 56.7198 23.5212 56.8002 23.6942 56.8429C23.8683 56.8003 24.0305 56.7199 24.1688 56.6077C37.4018 47.9528 46.2668 33.4325 46.2668 16.7054C46.2705 14.815 46.0924 12.9286 45.735 11.0711V11.0713Z" fill="#FAFAFA"/>
    <path d="M22.042 48.9312C22.042 49.047 21.9242 49.1029 21.8064 48.9872C18.5553 45.3283 16.3713 40.8588 14.8939 35.9788L12.6491 37.3567C12.0566 37.7599 11.5856 37.5882 11.2323 36.9497C8.22047 31.7226 6.26815 23.1349 6.09348 17.0901C6.08638 16.8129 6.19157 16.5443 6.38591 16.3434C7.18915 15.3966 8.05444 14.5023 8.97625 13.6664C9.15092 13.4908 9.32952 13.6065 9.32952 13.8979C9.32952 21.3317 10.6285 28.2428 12.6985 32.7717C12.8732 33.1189 13.0518 33.1189 13.2873 32.9472L13.9366 32.5401C12.6985 27.1376 11.9882 19.9389 12.1667 11.6313C12.1667 11.3402 12.2237 11.2245 12.4022 11.1087C13.3073 10.5537 14.2547 10.0681 15.2357 9.65628C15.5319 9.54052 15.5928 9.59647 15.5928 9.82799C15.4142 21.9066 16.4169 30.2701 18.6047 36.9497C18.6617 37.1215 18.8403 37.0655 18.8403 36.8899C18.7225 34.4519 18.7225 32.3014 18.7225 29.6914L18.6047 8.84227C18.6047 8.61076 18.6617 8.495 18.9009 8.43535C19.8724 8.20003 20.8581 8.02546 21.8521 7.91267C21.8763 7.9096 21.9008 7.91202 21.9239 7.91975C21.947 7.92747 21.968 7.9403 21.9852 7.95724C22.0025 7.97418 22.0155 7.99478 22.0234 8.01746C22.0313 8.04015 22.0338 8.0643 22.0307 8.08808L22.042 48.9312ZM25.5287 7.91653C25.5044 7.91266 25.4795 7.91451 25.4561 7.92195C25.4326 7.92938 25.4113 7.94218 25.3939 7.95929C25.3765 7.9764 25.3635 7.99733 25.3559 8.02037C25.3483 8.0434 25.3464 8.06787 25.3503 8.09177V48.9311C25.3503 49.0468 25.468 49.1028 25.5858 48.987V48.9722C36.7031 38.8689 40.0607 31.3827 40.0607 26.8426C40.0607 24.2886 39.0542 22.3733 36.4562 21.6752C37.7855 20.2272 38.5217 18.3462 38.5226 16.3957C38.5226 11.6912 33.4442 8.43921 25.5287 7.91637V7.91653ZM28.7157 11.7398C32.3202 11.9824 35.0395 13.898 35.0395 16.2203C35.0395 18.6584 33.2849 21.2719 28.7157 23.8742V11.7398ZM34.5643 24.9309C35.6888 24.9309 36.4562 25.8604 36.4562 27.4884C36.4562 29.8108 34.7434 34.3397 28.7157 40.9595V27.8354C32.2025 25.3974 33.3225 24.9309 34.5643 24.9309Z" fill="black"/>
</svg>
